<svg width="120" height="120" viewBox="0 0 120 120" xmlns="http://www.w3.org/2000/svg">
  <!-- Círculo principal con patrón -->
  <g transform="translate(60, 60)">
    <!-- Círculo base -->
    <circle cx="0" cy="0" r="45" fill="none" stroke="#7CB342" stroke-width="2" opacity="0.3"/>
    
    <!-- Elementos de conexión -->
    <g fill="#7CB342">
      <!-- Círculos principales -->
      <circle cx="-25" cy="-15" r="6"/>
      <circle cx="25" cy="-15" r="6"/>
      <circle cx="-15" cy="20" r="5"/>
      <circle cx="15" cy="20" r="5"/>
      <circle cx="0" cy="-30" r="4"/>
      <circle cx="0" cy="30" r="4"/>
      
      <!-- Círculos secundarios -->
      <circle cx="-10" cy="-25" r="3"/>
      <circle cx="10" cy="-25" r="3"/>
      <circle cx="-30" cy="0" r="3"/>
      <circle cx="30" cy="0" r="3"/>
      <circle cx="-8" cy="35" r="3"/>
      <circle cx="8" cy="35" r="3"/>
      
      <!-- Conectores tipo dumbbell -->
      <ellipse cx="-18" cy="-8" rx="6" ry="2" transform="rotate(30 -18 -8)"/>
      <ellipse cx="18" cy="-8" rx="6" ry="2" transform="rotate(-30 18 -8)"/>
      <ellipse cx="-8" cy="28" rx="6" ry="2" transform="rotate(-30 -8 28)"/>
      <ellipse cx="8" cy="28" rx="6" ry="2" transform="rotate(30 8 28)"/>
      
      <!-- Elementos adicionales -->
      <circle cx="-35" cy="-20" r="2"/>
      <circle cx="35" cy="-20" r="2"/>
      <circle cx="-20" cy="35" r="2"/>
      <circle cx="20" cy="35" r="2"/>
    </g>
  </g>
</svg>