<svg width="400" height="400" viewBox="0 0 400 400" xmlns="http://www.w3.org/2000/svg">
  <!-- Círculo de fondo con patrón de puntos -->
  <defs>
    <pattern id="dotPattern" x="0" y="0" width="30" height="30" patternUnits="userSpaceOnUse">
      <circle cx="15" cy="15" r="6" fill="#7CB342"/>
      <circle cx="5" cy="5" r="4" fill="#7CB342"/>
      <circle cx="25" cy="5" r="4" fill="#7CB342"/>
      <circle cx="5" cy="25" r="4" fill="#7CB342"/>
      <circle cx="25" cy="25" r="4" fill="#7CB342"/>
    </pattern>
  </defs>
  
  <!-- Círculo principal -->
  <circle cx="200" cy="120" r="80" fill="none" stroke="#7CB342" stroke-width="3" opacity="0.8"/>
  <circle cx="200" cy="120" r="75" fill="url(#dotPattern)" opacity="0.9"/>
  
  <!-- Elementos de conexión -->
  <g fill="#7CB342">
    <!-- Círculos grandes -->
    <circle cx="150" cy="100" r="12"/>
    <circle cx="250" cy="100" r="12"/>
    <circle cx="170" cy="140" r="10"/>
    <circle cx="230" cy="140" r="10"/>
    <circle cx="200" cy="80" r="8"/>
    <circle cx="200" cy="160" r="8"/>
    
    <!-- Círculos medianos -->
    <circle cx="180" cy="70" r="6"/>
    <circle cx="220" cy="70" r="6"/>
    <circle cx="160" cy="120" r="6"/>
    <circle cx="240" cy="120" r="6"/>
    <circle cx="185" cy="170" r="6"/>
    <circle cx="215" cy="170" r="6"/>
    
    <!-- Conectores -->
    <rect x="148" y="96" width="8" height="8" rx="4"/>
    <rect x="244" y="96" width="8" height="8" rx="4"/>
    <rect x="168" y="136" width="8" height="8" rx="4"/>
    <rect x="224" y="136" width="8" height="8" rx="4"/>
    
    <!-- Elementos de enlace -->
    <ellipse cx="170" cy="85" rx="8" ry="4" transform="rotate(45 170 85)"/>
    <ellipse cx="230" cy="85" rx="8" ry="4" transform="rotate(-45 230 85)"/>
    <ellipse cx="170" cy="155" rx="8" ry="4" transform="rotate(-45 170 155)"/>
    <ellipse cx="230" cy="155" rx="8" ry="4" transform="rotate(45 230 155)"/>
  </g>
  
  <!-- Texto NEWRY -->
  <g fill="#4A4A4A" font-family="Arial, sans-serif" font-weight="bold">
    <text x="50" y="280" font-size="58">N</text>
    <text x="105" y="280" font-size="58">E</text>
    <text x="160" y="280" font-size="58">W</text>
    <text x="220" y="280" font-size="58">R</text>
    <text x="275" y="280" font-size="58">Y</text>
    
    <!-- Líneas verdes decorativas -->
    <rect x="105" y="290" width="40" height="6" fill="#7CB342"/>
    <rect x="105" y="302" width="40" height="6" fill="#7CB342"/>
    <rect x="105" y="314" width="40" height="6" fill="#7CB342"/>
  </g>
  
  <!-- Texto GLOBAL MEDIA -->
  <g fill="#4A4A4A" font-family="Arial, sans-serif" font-weight="normal">
    <text x="100" y="360" font-size="24" letter-spacing="3">GLOBAL MEDIA</text>
  </g>
</svg>